<?xml version="1.0" standalone="no"?>
<!DOCTYPE svg PUBLIC "-//W3C//DTD SVG 20010904//EN"
 "http://www.w3.org/TR/2001/REC-SVG-20010904/DTD/svg10.dtd">
<svg version="1.0" xmlns="http://www.w3.org/2000/svg"
 width="700.000000pt" height="700.000000pt" viewBox="0 0 700.000000 700.000000"
 preserveAspectRatio="xMidYMid meet">
<metadata>
Created by potrace 1.14, written by Peter Selinger 2001-2017
</metadata>
<g transform="translate(0.000000,700.000000) scale(0.100000,-0.100000)"
fill="#000000" stroke="none">
<path d="M3367 6564 c-1 -1 -74 -4 -162 -8 -88 -3 -178 -8 -200 -10 -22 -3
-76 -7 -120 -11 -44 -3 -93 -8 -110 -10 -16 -3 -66 -9 -110 -15 -85 -11 -93
-12 -225 -35 -733 -129 -1199 -389 -1263 -705 -14 -65 -16 -2399 -3 -2485 35
-229 292 -434 732 -584 87 -30 329 -94 396 -106 18 -4 78 -15 133 -25 87 -16
139 -24 290 -45 17 -2 59 -7 95 -10 36 -4 81 -8 100 -10 19 -3 85 -7 145 -11
61 -4 117 -8 125 -9 13 -2 15 -38 18 -246 l2 -244 -77 -37 c-107 -50 -166 -91
-248 -173 -79 -78 -141 -168 -182 -262 l-27 -63 -146 0 c-80 0 -494 -1 -920
-1 -736 0 -778 -1 -829 -19 -156 -56 -231 -210 -180 -369 24 -75 76 -129 159
-169 l55 -26 927 -1 c510 -1 930 -4 934 -8 4 -3 17 -31 29 -60 91 -226 324
-420 585 -489 118 -31 310 -31 425 1 254 68 453 231 571 468 l43 88 918 0
c674 1 929 4 959 13 221 64 282 361 102 502 -89 71 -64 69 -881 69 -402 0
-815 1 -917 1 l-186 0 -27 63 c-83 190 -266 371 -451 447 l-56 22 2 246 c3
209 5 245 18 247 8 1 62 5 120 9 142 9 299 23 338 31 9 1 44 6 77 9 33 4 83
11 110 16 28 5 68 12 90 15 63 9 344 73 421 96 379 113 642 258 769 424 39 50
83 147 91 200 4 28 8 583 8 1235 1 903 -1 1200 -11 1248 -52 266 -386 493
-938 637 -139 36 -384 85 -500 99 -22 3 -65 8 -95 12 -30 3 -63 8 -72 9 -9 2
-59 7 -110 11 -51 3 -95 8 -98 9 -13 8 -634 26 -643 19z"/>
</g>
</svg>
